<?xml version="1.0" encoding="UTF-8" standalone="no"?>
<!DOCTYPE svg PUBLIC "-//W3C//DTD SVG 1.1//EN" "http://www.w3.org/Graphics/SVG/1.1/DTD/svg11.dtd">
<svg width="100%" height="100%" viewBox="0 0 2000 2000" version="1.1" xmlns="http://www.w3.org/2000/svg" xmlns:xlink="http://www.w3.org/1999/xlink" xml:space="preserve" xmlns:serif="http://www.serif.com/" style="fill-rule:evenodd;clip-rule:evenodd;stroke-linejoin:round;stroke-miterlimit:2;">
    <g transform="matrix(1.615106,0,0,1.147407,-546.566811,-120.138483)">
        <g transform="matrix(9.370055,0,0,18.906759,-3235.325097,-10301.821386)">
            <path d="M432.373,633.313L423.739,633.313C422.13,633.313 420.825,632.666 420.825,631.869L420.825,599.211C420.825,598.413 422.13,597.766 423.739,597.766L432.251,597.766C434.659,597.766 436.869,598.177 438.879,598.999C440.889,599.821 442.631,600.993 444.104,602.515C445.577,604.037 446.716,605.835 447.522,607.91C448.327,609.985 448.73,612.284 448.73,614.807L448.73,616.296C448.73,618.803 448.327,621.098 447.522,623.181C446.716,625.265 445.581,627.063 444.116,628.577C442.651,630.09 440.922,631.258 438.928,632.08C436.934,632.902 434.749,633.313 432.373,633.313ZM429.394,604.382L429.394,626.721L432.373,626.721C434,626.721 435.38,626.331 436.511,625.549C437.642,624.768 438.505,623.6 439.099,622.046C439.693,620.492 439.99,618.575 439.99,616.296L439.99,614.758C439.99,613.049 439.823,611.548 439.489,610.254C439.156,608.96 438.663,607.878 438.012,607.007C437.361,606.136 436.552,605.481 435.583,605.042C434.615,604.602 433.504,604.382 432.251,604.382L429.394,604.382ZM469.834,633.313L458.588,633.313C456.978,633.313 455.673,632.666 455.673,631.869L455.673,599.211C455.673,598.828 455.98,598.46 456.527,598.189C457.074,597.918 457.815,597.766 458.588,597.766L468.442,597.766C470.639,597.766 472.6,597.966 474.326,598.364C476.051,598.763 477.52,599.369 478.732,600.183C479.945,600.997 480.869,602.018 481.503,603.247C482.138,604.476 482.456,605.921 482.456,607.581C482.456,609.029 482.146,610.388 481.528,611.658C480.909,612.927 479.88,613.957 478.44,614.746C478.162,614.898 477.864,615.037 477.547,615.161C478.197,615.326 478.779,615.55 479.294,615.833C480.686,616.598 481.683,617.607 482.285,618.86C482.887,620.113 483.188,621.423 483.188,622.791C483.188,625.118 482.688,627.063 481.687,628.626C480.686,630.188 479.192,631.36 477.207,632.141C475.221,632.922 472.763,633.313 469.834,633.313ZM464.243,618.201L464.243,626.721L469.834,626.721C471.005,626.721 471.945,626.538 472.653,626.172C473.361,625.806 473.874,625.317 474.191,624.707C474.509,624.097 474.668,623.417 474.668,622.669C474.668,621.757 474.517,620.968 474.216,620.3C473.915,619.633 473.439,619.116 472.788,618.75C472.137,618.384 471.266,618.201 470.175,618.201L464.243,618.201ZM468.393,612.586C469.728,612.586 470.794,612.435 471.591,612.134C472.389,611.833 472.971,611.389 473.337,610.803C473.703,610.217 473.886,609.485 473.886,608.606C473.886,607.597 473.699,606.783 473.325,606.165C472.95,605.546 472.36,605.094 471.555,604.81C470.749,604.525 469.711,604.382 468.442,604.382L464.243,604.382L464.243,612.586L468.393,612.586Z"/>
        </g>
        <g transform="matrix(9.370055,0,0,18.906759,-2563.83551,-11020.859477)">
            <path d="M382.902,632.401C382.026,633.598 378.335,634.498 373.921,634.498C368.856,634.498 364.743,633.313 364.743,631.853C364.743,630.394 368.856,629.209 373.921,629.209C374.137,629.209 374.35,629.211 374.562,629.215L374.562,599.181C374.562,598.798 374.869,598.43 375.416,598.159C375.962,597.889 376.703,597.736 377.476,597.736L383.304,597.736C384.737,597.736 385.958,598.253 386.183,598.954L390.848,613.496C391.073,614.197 392.294,614.713 393.727,614.713C395.16,614.713 396.38,614.197 396.605,613.496L401.271,598.954C401.496,598.253 402.716,597.736 404.149,597.736L410.002,597.736C410.775,597.736 411.516,597.889 412.063,598.159C412.609,598.43 412.916,598.798 412.916,599.181L412.916,627.502C412.916,627.547 412.912,627.592 412.903,627.637C412.912,627.684 412.916,627.731 412.916,627.779C412.916,629.238 408.804,630.423 403.738,630.423C398.673,630.423 394.56,629.238 394.56,627.779C394.56,626.319 398.673,625.134 403.738,625.134C403.934,625.134 404.129,625.136 404.323,625.139L404.323,624.982L405.16,607.983L399.316,625.173C397.998,625.373 396.859,625.658 395.986,626.001C394.724,626.497 394.004,627.117 394.004,627.779C394.004,628.44 394.724,629.06 395.986,629.556C396.466,629.744 397.027,629.916 397.653,630.065L396.968,632.079C396.732,632.774 395.517,633.283 394.094,633.283L393.359,633.283C391.937,633.283 390.722,632.774 390.485,632.079L382.293,607.983L383.131,624.982L383.131,631.839C383.131,632.038 383.05,632.228 382.902,632.401ZM349.161,604.353L341.627,604.353C340.017,604.353 338.712,603.706 338.712,602.908L338.712,599.181C338.712,598.383 340.017,597.736 341.627,597.736L365.509,597.736C367.119,597.736 368.424,598.383 368.424,599.181L368.424,602.908C368.424,603.706 367.119,604.353 365.509,604.353L357.731,604.353L357.731,631.839C357.731,632.636 356.426,633.283 354.816,633.283L352.076,633.283C350.466,633.283 349.161,632.636 349.161,631.839L349.161,604.353Z"/>
        </g>
    </g>
</svg>
