<?xml version="1.0" encoding="UTF-8" standalone="no"?>
<!DOCTYPE svg PUBLIC "-//W3C//DTD SVG 1.1//EN" "http://www.w3.org/Graphics/SVG/1.1/DTD/svg11.dtd">
<svg width="100%" height="100%" viewBox="0 0 2000 2000" version="1.1" xmlns="http://www.w3.org/2000/svg" xmlns:xlink="http://www.w3.org/1999/xlink" xml:space="preserve" xmlns:serif="http://www.serif.com/" style="fill-rule:evenodd;clip-rule:evenodd;stroke-linejoin:round;stroke-miterlimit:2;">
    <g>
        <g transform="matrix(1,0,0,1,36,243)">
            <path d="M496,324C496,177.743 705.704,59 964,59C1222.296,59 1432,177.743 1432,324L1432,1165C1432,1307.177 1233.833,1423.354 985.5,1429.725L985.5,1430L942.5,1430L942.5,1429.725C694.167,1423.354 496,1307.177 496,1165L496,324ZM1008.014,546.127C1134.285,539.16 1244.985,502.471 1316.186,447.486C1361.463,412.52 1390.333,370.639 1390.333,324C1390.333,277.361 1361.463,235.48 1316.186,200.514C1236.821,139.225 1108.378,100.667 964,100.667C819.622,100.667 691.179,139.225 611.814,200.514C566.537,235.48 537.667,277.361 537.667,324C537.667,370.639 566.537,412.52 611.814,447.486C682.529,502.096 792.207,538.659 917.404,545.98C932.718,546.875 948.265,547.333 964,547.333C978.852,547.333 993.535,546.925 1008.014,546.127ZM930.962,534.147C923.383,533.82 917.406,527.581 917.406,519.995C917.404,480.663 917.404,365.886 917.404,320.352C917.404,315.331 915.41,310.516 911.86,306.965C908.309,303.415 903.494,301.421 898.473,301.421L825.849,301.421C820.828,301.421 816.013,299.426 812.462,295.876C808.912,292.325 806.918,287.51 806.918,282.489L806.918,241.519C806.918,236.498 808.912,231.683 812.462,228.132C816.013,224.582 820.828,222.587 825.849,222.587L1102.151,222.587C1107.172,222.587 1111.987,224.582 1115.538,228.132C1119.088,231.683 1121.082,236.498 1121.082,241.519L1121.082,282.489C1121.082,292.945 1112.606,301.421 1102.151,301.421L1026.946,301.421C1016.49,301.421 1008.014,309.897 1008.014,320.352L1008.014,520.098C1008.014,527.704 1002.008,533.953 994.407,534.254C984.361,534.638 974.221,534.833 964,534.833C952.886,534.833 941.868,534.602 930.962,534.147ZM871.948,894.866C722.735,877.986 599.033,820.876 537.667,744.387L537.667,900C537.667,946.639 566.537,988.52 611.814,1023.486C658.787,1059.761 722.953,1088.073 797.439,1105.141C798.327,1114.062 799.94,1123.637 802.657,1133.516C803.726,1137.402 804.692,1140.318 804.776,1140.569C810.353,1157.217 820.686,1178.942 841.311,1199.598C842.644,1200.933 850.338,1208.774 862.481,1217.361C879.1,1229.113 892.232,1236.045 897.169,1238.597C912.138,1246.336 935.731,1256.686 963.454,1260.175C968.528,1260.82 973.274,1262.442 977.508,1264.842C973.021,1264.914 968.518,1264.95 964,1264.95C774.57,1264.95 611.275,1201.084 537.667,1109.337L537.667,1165C537.667,1211.639 566.537,1253.52 611.814,1288.486C675.774,1337.879 771.608,1372.508 881.97,1384.091C891.876,1391.73 904.286,1396.276 917.749,1396.279L917.847,1396.279C918.565,1396.278 919.309,1396.264 920.05,1396.235C920.955,1396.209 922.203,1396.162 923.707,1396.083C931.324,1395.685 945.501,1394.465 960.857,1390.762C963.974,1390.01 966.993,1389.193 969.913,1388.312C1111.882,1387.275 1237.907,1348.937 1316.186,1288.486C1361.463,1253.52 1390.333,1211.639 1390.333,1165L1390.333,1109.337C1325.719,1189.874 1191.997,1248.926 1032.153,1262.155C1035.505,1254.871 1041.122,1248.678 1048.405,1244.645C1054.784,1241.13 1061.459,1236.782 1068.171,1231.392C1101.092,1204.958 1114.137,1170.749 1117.895,1160.513C1122.071,1149.137 1124.545,1138.739 1126.002,1129.866C1126.446,1128.628 1126.798,1127.355 1127.055,1126.066C1127.296,1124.851 1127.373,1123.609 1127.504,1122.378C1127.517,1122.258 1127.561,1121.783 1127.564,1120.969L1127.567,1120.862L1127.661,1115.954L1127.661,1115.943C1127.663,1115.864 1127.666,1115.784 1127.672,1115.704C1127.954,1111.719 1128.032,1108.353 1128.035,1105.715C1203.597,1088.711 1268.683,1060.17 1316.186,1023.486C1361.463,988.52 1390.333,946.639 1390.333,900L1390.333,744.387C1322.625,828.78 1179.032,889.583 1009.015,898.788C1007.816,879.972 1006.647,860.921 1005.562,842.088C1005.055,833.197 1007.659,824.407 1012.928,817.227C1030.417,793.518 1039.99,779.427 1043.012,775.078C1048.835,766.698 1053.808,759.299 1058.064,752.78C1163.35,740.009 1254.563,706.125 1316.186,658.536C1361.463,623.57 1390.333,581.689 1390.333,535.05L1390.333,433.388C1331.076,507.247 1213.695,563.037 1071.346,581.984C1069.757,580.833 1068.045,579.692 1066.229,578.618C1062.949,576.677 1062.907,576.743 1059.325,575.441C1059.195,575.393 1055.021,574.101 1048.116,573.323C1029.308,571.204 1006.465,574.348 988.209,588.651C980.191,588.883 972.119,589 964,589C774.57,589 611.275,525.134 537.667,433.387L537.667,535.05C537.667,581.689 566.537,623.57 611.814,658.536C691.179,719.825 819.622,758.383 964,758.383L966.192,758.38C966.422,763.361 966.657,768.221 966.888,772.865L966.888,772.869C967.38,782.69 964.079,792.323 957.668,799.779C938.808,821.673 922.363,839.893 913.947,849.226C893.887,871.474 877.928,888.526 871.948,894.866Z"/>
        </g>
        <g transform="matrix(0.045663,0,0,0.045674,998.267934,1227.498293)">
            <g transform="matrix(1,0,0,1,-3402.083333,-8787.5)">
                <clipPath id="_clip1">
                    <rect x="0" y="0" width="6804.167" height="17575"/>
                </clipPath>
                <g clip-path="url(#_clip1)">
                    <g transform="matrix(4.166667,0,0,4.166667,-3907.546096,-1549.031208)">
                        <g transform="matrix(1,0,0,1,386.129339,-258.220683)">
                            <path d="M1375.996,4669.445C1370.237,4687.795 1375.809,4707.816 1390.22,4720.552C1404.631,4733.289 1425.185,4736.358 1442.688,4728.388C1477.266,4712.777 1509.626,4693.525 1536.593,4669.745C1601.049,4612.906 1614.8,4547.51 1610.888,4488.854C1606.146,4417.759 1599.502,4273.488 1595.099,4181.284C1594.432,4167.991 1588.36,4155.548 1578.29,4146.844C1568.221,4138.14 1555.03,4133.932 1541.78,4135.195C1335.788,4155.339 1153.101,4077.637 1050.946,4024.822C1025.928,4011.887 959.393,3976.739 875.175,3917.186C815.483,3874.976 777.645,3836.449 771.091,3829.885C670.174,3728.818 619.608,3622.521 592.321,3541.066C591.914,3539.849 587.242,3525.716 582.065,3506.886C558.183,3420.035 551.619,3337.943 551.682,3270.28C551.682,3270.22 551.893,3241.644 555.156,3202.358C562.05,3119.35 577.285,3048.499 588.281,3003.439C588.289,3003.408 591.272,2991.538 595.579,2975.87C629.378,2852.929 674.583,2748.51 704.408,2684.497C704.458,2684.39 712.148,2668.02 722.767,2646.639C815.748,2459.436 911.834,2330.748 915.233,2325.96C916.684,2323.917 918.007,2321.779 919.568,2319.82C920.075,2319.184 920.981,2318.047 926.408,2312.313C950.978,2286.358 1040.129,2191.487 1154.598,2064.538C1206.904,2006.528 1318.043,1883.398 1439.514,1740.192C1447.567,1730.693 1451.679,1718.473 1451.008,1706.039C1448.109,1652.11 1444.773,1586.648 1441.736,1518.256C1441.629,1515.833 1441.578,1513.408 1441.416,1510.989C1441.32,1509.562 1425.231,1395.111 1411.129,1271.225C1411.059,1270.61 1406.076,1208.923 1402.559,1145.063C1401.568,1127.082 1399.599,1088.336 1399.213,1065.679C1397.62,972.125 1409.89,826.918 1509.487,727.188C1596.655,639.904 1716.44,621.98 1812.68,632.826C1841.152,636.035 1858.463,640.807 1859,641.003C1873.035,646.104 1873.244,645.753 1886.097,653.358C1924.925,676.331 1953.281,706.182 1961.665,715.126C1962.907,716.45 1962.845,716.496 1963.906,717.974C2005.694,776.177 2079.887,913.62 2016.401,1131.503C2012.433,1145.122 2005.547,1171.696 1977.599,1220.829C1976.689,1222.428 1962.16,1260.053 1925.524,1326.411C1897.21,1377.694 1845.71,1465.148 1747.051,1607.131C1728.897,1633.258 1665.485,1726.691 1545.959,1886.451C1539.105,1895.621 1535.698,1906.91 1536.333,1918.34C1552.125,2201.893 1572.125,2500.085 1589.739,2755.506C1590.641,2768.573 1596.763,2780.728 1606.726,2789.231C1616.688,2797.735 1629.654,2801.871 1642.701,2800.709C1648.688,2800.135 1654.713,2799.678 1660.77,2799.316C1661.49,2799.273 1661.81,2799.254 1669.768,2799.781C1840.58,2811.1 1988.221,2898.346 2080.761,3026.552C2146.924,3118.214 2180.406,3224.634 2181.922,3330.392C2181.952,3332.714 2182.148,3335.03 2182.508,3337.324C2182.994,3340.351 2183.452,3344.512 2183.552,3349.294C2183.803,3361.255 2184.782,3387.58 2182.105,3424.764C2182.044,3425.615 2182.005,3426.468 2181.989,3427.322C2181.884,3432.761 2181.485,3453.884 2181.485,3453.884L2181.484,3453.884C2181.476,3453.884 2181.47,3453.887 2181.464,3453.892C2181.459,3453.897 2181.457,3453.904 2181.457,3453.911C2181.479,3455.763 2181.48,3456.83 2181.454,3457.07C2180.938,3461.908 2180.785,3466.805 2179.836,3471.577C2178.886,3476.35 2177.524,3481.058 2175.778,3485.6C2175.524,3486.26 2175.262,3486.918 2174.992,3487.573C2174.899,3487.798 2174.832,3488.034 2174.795,3488.274C2167.734,3533.088 2155.394,3586.12 2134.014,3644.361C2115.546,3694.668 2051.703,3862.991 1889.904,3992.912C1817.53,4051.026 1746.077,4084.204 1689.16,4103.569C1668.676,4110.508 1655.219,4130.12 1656.115,4151.729C1659.903,4244.911 1666.564,4406.105 1671.112,4485.146C1680.824,4653.928 1562.005,4767.911 1347.567,4819.624C1271.018,4838.084 1200.345,4844.145 1162.374,4846.13C1154.855,4846.523 1148.641,4846.754 1143.982,4846.89C1140.749,4847.015 1137.5,4847.08 1134.238,4847.083L1134,4847.083C994.044,4847.083 880.417,4733.456 880.417,4593.5C880.417,4453.544 994.044,4339.917 1134,4339.917C1273.956,4339.917 1387.583,4453.544 1387.583,4593.5C1387.583,4619.952 1383.524,4645.463 1375.996,4669.445ZM1475.339,2119.762C1474.069,2099.541 1460.425,2082.212 1441.066,2076.234C1421.707,2070.257 1400.668,2076.876 1388.219,2092.862C1367.1,2119.971 1344.971,2148.188 1321.806,2177.512C1274.696,2237.148 1177.114,2358.581 1098.766,2452.659C1097.414,2454.281 1096.168,2455.99 1095.038,2457.775C1077.462,2485.625 999.673,2611.8 931.88,2780.705C917.925,2815.473 872.123,2926.904 845.063,3059.2C839.9,3084.445 820.803,3169.861 821.406,3268.959C821.493,3283.313 819.102,3347.231 836.076,3421.775C839.559,3437.073 842.844,3448.731 847.577,3464.281C873.658,3549.955 918.44,3614.381 968.332,3664.468C981.268,3677.454 998.483,3694.463 1029.513,3718.454C1278.765,3911.167 1455.466,3921.031 1546.785,3912.48C1547.111,3912.45 1547.437,3912.419 1547.764,3912.387C1567.349,3910.52 1582.07,3893.688 1581.313,3874.029C1574.65,3699.909 1570.189,3544.139 1561.635,3380.716C1559.063,3331.572 1556.693,3288.985 1544.134,3111.348C1543.022,3095.241 1534.008,3080.73 1520.062,3072.596C1506.117,3064.461 1489.048,3063.758 1474.481,3070.718C1359.671,3125.946 1275.467,3245.993 1273.143,3392.956C1271.414,3502.298 1316.383,3601.664 1385.633,3673.47C1385.955,3673.804 1386.28,3674.136 1386.602,3674.47L1386.586,3674.456C1387.846,3675.773 1389.244,3676.97 1390.368,3678.404C1391.377,3679.694 1397.137,3687.051 1395.86,3698.122C1395.239,3703.51 1393.067,3707.407 1392.657,3708.142C1389.948,3713.004 1386.265,3715.868 1385.578,3716.402C1384.286,3717.407 1376.929,3723.129 1365.861,3721.867C1360.473,3721.253 1356.576,3719.099 1355.84,3718.692C1355.513,3718.511 1334.896,3704.607 1310.329,3682.223C1206.572,3587.679 1149.771,3452.032 1153.422,3308.979C1158.731,3100.949 1292.508,2914.485 1490.172,2836.705C1509.99,2828.912 1522.447,2809.146 1520.927,2787.905C1506.253,2582.079 1489.91,2349.734 1475.339,2119.762ZM2008.284,3342.062C2008.357,3341.276 2008.347,3340.485 2008.253,3339.702C1995.744,3236.206 1938.982,3149.062 1860.17,3096.045C1805.021,3058.945 1735.906,3036.297 1659.512,3040.722C1658.469,3040.782 1658.472,3040.724 1657.435,3040.593L1657.433,3040.593C1645.544,3039.094 1633.608,3042.993 1624.896,3051.221C1616.184,3059.45 1611.611,3071.144 1612.429,3083.099C1621.7,3218.076 1628.518,3321.877 1630.918,3377.406C1637.301,3525.028 1640.401,3665.676 1644.641,3818.829C1645.12,3835.807 1654.4,3851.311 1669.137,3859.755C1683.874,3868.198 1701.944,3868.363 1716.832,3860.19C1827.407,3799.448 1908.197,3695.38 1955.944,3587.359C1983.808,3524.322 1995.05,3466.789 1996.45,3459.943C2007.765,3404.624 2007.753,3365.217 2007.982,3351.902C2007.982,3351.893 2007.99,3351.885 2007.999,3351.885L2008,3351.885C2007.987,3350.979 2007.981,3350.333 2007.981,3349.984C2007.979,3346.638 2008.111,3344.039 2008.284,3342.062ZM1519.071,1554.246C1519.602,1567.938 1528.573,1579.864 1541.581,1584.169C1554.59,1588.473 1568.904,1584.254 1577.497,1573.581C1592.041,1555.532 1606.476,1537.437 1620.719,1519.372C1627.233,1511.11 1643.208,1490.25 1645.153,1487.71C1712.633,1399.599 1810.463,1266.12 1857.848,1168.479C1858.556,1167.019 1858.454,1166.983 1858.929,1165.428C1870.976,1125.961 1870.498,1109.697 1870.654,1106.896C1871.346,1094.495 1875.745,1042.651 1863.62,987.158C1859.248,967.147 1844.883,907.998 1798.822,866.118C1795.436,863.039 1793.39,861.398 1792.902,861.006C1792.391,860.596 1792.602,860.42 1788.026,854.426C1785.288,850.839 1782.718,847.775 1780.463,845.231C1777.758,842.208 1774.159,840.125 1770.19,839.285C1747.18,834.516 1712.665,830.833 1679.028,839.49C1646.887,847.762 1603.717,869.829 1573.622,945.877C1549.344,1007.226 1544.722,1075.99 1542.607,1103.085C1536.368,1183.033 1533.331,1265.394 1533.049,1268.999C1526.663,1350.717 1521.668,1431.106 1517.476,1505.532C1517.431,1506.34 1517.33,1507.146 1517.341,1507.955C1517.341,1507.976 1518.095,1529.035 1519.071,1554.245L1519.071,1554.246Z"/>
                        </g>
                    </g>
                </g>
            </g>
        </g>
    </g>
</svg>
